<?xml version="1.0" encoding="UTF-8"?>
<svg id="Ae" xmlns="http://www.w3.org/2000/svg" version="1.1" viewBox="0 0 480 480">
  <!-- Generator: Adobe Illustrator 30.3.0, SVG Export Plug-In . SVG Version: 2.1.3 Build 182)  -->
  <defs>
    <style>
      .st0 {
        fill: #1e1b57;
      }
    </style>
  </defs>
  <path class="st0" d="M174.26,215.87c-1.9-5.89-3.61-11.59-5.51-17.48-1.9-5.89-3.61-11.4-5.13-16.91-1.52-5.32-2.85-10.26-4.18-14.82h-.38c-1.71,8.17-3.8,16.34-6.46,24.51-2.85,9.12-5.7,18.62-8.74,28.12-2.47,9.69-5.51,18.62-8.36,26.6h48.26c-1.14-3.99-2.66-8.74-4.37-13.68-1.71-5.13-3.42-10.64-5.13-16.34Z"/>
  <path class="st0" d="M336.52,210.74c-10.45-.57-20.33,4.94-25.27,14.44-2.28,4.37-3.61,8.93-4.18,13.68h40.09c4.94,0,8.55,0,10.83-.19,1.52-.19,3.04-.57,4.37-1.52v-1.9c0-2.47-.38-4.75-1.14-7.03-3.42-10.64-13.49-17.86-24.7-17.48Z"/>
  <path class="st0" d="M387.25,17.7H92.75C48.1,17.7,12,53.8,12,98.45v283.1c0,44.65,36.1,80.75,80.75,80.75h294.5c44.65,0,80.75-36.1,80.75-80.75V98.45c0-44.65-36.1-80.75-80.75-80.75ZM253.49,330.44h-39.71c-1.33.19-2.66-.76-3.04-2.09l-15.58-45.6v.95h-70.68l-14.44,44.84c-.38,1.71-1.9,2.85-3.61,2.66h-35.72c-2.09,0-2.66-1.14-2.09-3.42l61.18-175.37c.57-1.9,1.14-3.61,1.9-5.89.76-3.99,1.14-8.17,1.14-12.35-.19-.95.57-1.9,1.52-2.09h49.21c1.33,0,2.28.57,2.47,1.52l69.35,193.8c.57,2.09,0,3.04-1.9,3.04ZM401.88,255.96c-.38,3.61-.57,6.27-.76,7.98-.19,1.33-1.33,2.47-2.66,2.47-1.14,0-3.23.19-6.27.38-3.04.38-6.65.57-11.02.57s-8.93-.76-13.87-.76h-60.23c.76,5.89,2.66,11.78,5.89,16.91,3.42,5.13,8.17,9.12,13.87,11.4,7.6,3.23,15.96,4.94,24.32,4.75,6.65-.19,13.3-.76,19.76-2.09,5.89-.76,11.59-2.28,16.91-4.37.95-.76,1.52-.38,1.52,1.52v29.07c0,.76-.19,1.52-.38,2.28-.38.57-.76.95-1.33,1.33-6.08,2.66-12.35,4.56-19,5.7-8.93,1.71-17.86,2.47-26.98,2.28-14.44,0-26.6-2.28-36.48-6.65-9.31-3.99-17.48-10.26-23.94-18.05-6.08-7.41-10.45-15.77-13.11-24.89-2.66-8.93-3.99-18.24-3.99-27.74,0-10.26,1.52-20.33,4.75-30.21,3.04-9.5,7.79-18.24,14.25-26.03,6.27-7.6,14.06-13.68,22.99-18.05,8.93-4.37,19.57-5.89,31.73-5.89,10.07-.19,20.14,1.71,29.45,5.89,7.79,3.42,14.63,8.55,19.95,15.2,4.94,6.46,8.93,13.68,11.4,21.66,2.47,7.6,3.61,15.39,3.61,23.18,0,4.56-.19,8.55-.38,12.16Z"/>
</svg>