<?xml version="1.0" encoding="UTF-8"?>
<svg xmlns="http://www.w3.org/2000/svg" version="1.1" xmlns:xlink="http://www.w3.org/1999/xlink" viewBox="0 0 480 480">
  <!-- Generator: Adobe Illustrator 30.3.0, SVG Export Plug-In . SVG Version: 2.1.3 Build 182)  -->
  <defs>
    <style>
      .st0 {
        fill: #460437;
      }

      .st1 {
        fill: #cb73af;
      }

      .st2 {
        fill: #f37264;
      }

      .st3 {
        fill: url(#radial-gradient);
      }

      .st4 {
        fill: #061f34;
      }

      .st5 {
        fill: #9695c9;
      }

      .st6 {
        fill: #1e1b57;
      }

      .st7 {
        fill: #46b8e9;
      }

      .st8, .st9 {
        display: none;
      }

      .st10 {
        fill: #8062aa;
      }

      .st11, .st9 {
        fill-rule: evenodd;
      }

      .st12 {
        fill: #f04f23;
      }

      .st9 {
        fill: #fff;
      }

      .st13 {
        fill: url(#linear-gradient);
      }

      .st14 {
        fill: #333996;
      }

      .st15 {
        fill: #55a0d8;
      }

      .st16 {
        fill: #47ba7e;
      }
    </style>
    <linearGradient id="linear-gradient" x1="150.3" y1="481.26" x2="-130.48" y2="117.17" gradientTransform="translate(194 586) scale(1 -1)" gradientUnits="userSpaceOnUse">
      <stop offset="0" stop-color="#7acdf3"/>
      <stop offset="1" stop-color="#42499e"/>
    </linearGradient>
    <radialGradient id="radial-gradient" cx="-259.14" cy="750.25" fx="-259.14" fy="750.25" r="4.22" gradientTransform="translate(-31789.19 -15405.39) rotate(135.02) scale(45.12 -44.92)" gradientUnits="userSpaceOnUse">
      <stop offset="0" stop-color="#7acdf3"/>
      <stop offset="1" stop-color="#555da9"/>
    </radialGradient>
  </defs>
  <g id="ref" class="st8">
    <path d="M16,16v448h448V16H16ZM259.8,365.4c0,43.6-25.6,63.5-62.9,63.5-33.7,0-53.2-17.4-63.2-38.5l34.3-20.7c6.6,11.7,12.6,21.6,27.1,21.6s22.6-5.4,22.6-26.5v-143.1h42.1v143.7h0ZM359.4,428.9c-39.1,0-64.4-18.6-76.7-43l34.3-19.8c9,14.7,20.8,25.6,41.5,25.6,17.4,0,28.6-8.7,28.6-20.8,0-14.4-11.4-19.5-30.7-28l-10.5-4.5c-30.4-12.9-50.5-29.2-50.5-63.5,0-31.6,24.1-55.6,61.6-55.6,26.8,0,46,9.3,59.8,33.7l-32.8,21c-7.2-12.9-15-18-27.1-18s-20.1,7.8-20.1,18c0,12.6,7.8,17.7,25.9,25.6l10.5,4.5c35.8,15.3,55.9,31,55.9,66.2,0,37.8-29.8,58.6-69.7,58.6h0Z"/>
  </g>
  <g id="Ae" class="st8">
    <g id="vlpa">
      <g id="vlpb">
        <g id="vlpc">
          <g id="vlpd">
            <path class="st6" d="M92.75,17.7h294.5c44.65,0,80.75,36.1,80.75,80.75v283.1c0,44.65-36.1,80.75-80.75,80.75H92.75c-44.65,0-80.75-36.1-80.75-80.75V98.45c0-44.65,36.1-80.75,80.75-80.75Z"/>
          </g>
        </g>
      </g>
      <g id="vlpe">
        <g id="vlpf">
          <path class="st5" d="M195.16,283.7h-70.68l-14.44,44.84c-.38,1.71-1.9,2.85-3.61,2.66h-35.72c-2.09,0-2.66-1.14-2.09-3.42l61.18-175.37c.57-1.9,1.14-3.61,1.9-5.89.76-3.99,1.14-8.17,1.14-12.35-.19-.95.57-1.9,1.52-2.09h49.21c1.33,0,2.28.57,2.47,1.52l69.35,193.8c.57,2.09,0,3.04-1.9,3.04h-39.71c-1.33.19-2.66-.76-3.04-2.09l-15.58-45.6v.95ZM135.5,245.89h48.26c-1.14-3.99-2.66-8.74-4.37-13.68-1.71-5.13-3.42-10.64-5.13-16.34-1.9-5.89-3.61-11.59-5.51-17.48s-3.61-11.4-5.13-16.91c-1.52-5.32-2.85-10.26-4.18-14.82h-.38c-1.71,8.17-3.8,16.34-6.46,24.51-2.85,9.12-5.7,18.62-8.74,28.12-2.47,9.69-5.51,18.62-8.36,26.6Z"/>
          <path class="st5" d="M367.3,266.6h-60.23c.76,5.89,2.66,11.78,5.89,16.91,3.42,5.13,8.17,9.12,13.87,11.4,7.6,3.23,15.96,4.94,24.32,4.75,6.65-.19,13.3-.76,19.76-2.09,5.89-.76,11.59-2.28,16.91-4.37.95-.76,1.52-.38,1.52,1.52v29.07c0,.76-.19,1.52-.38,2.28-.38.57-.76.95-1.33,1.33-6.08,2.66-12.35,4.56-19,5.7-8.93,1.71-17.86,2.47-26.98,2.28-14.44,0-26.6-2.28-36.48-6.65-9.31-3.99-17.48-10.26-23.94-18.05-6.08-7.41-10.45-15.77-13.11-24.89-2.66-8.93-3.99-18.24-3.99-27.74,0-10.26,1.52-20.33,4.75-30.21,3.04-9.5,7.79-18.24,14.25-26.03,6.27-7.6,14.06-13.68,22.99-18.05,8.93-4.37,19.57-5.89,31.73-5.89,10.07-.19,20.14,1.71,29.45,5.89,7.79,3.42,14.63,8.55,19.95,15.2,4.94,6.46,8.93,13.68,11.4,21.66,2.47,7.6,3.61,15.39,3.61,23.18,0,4.56-.19,8.55-.38,12.16-.38,3.61-.57,6.27-.76,7.98-.19,1.33-1.33,2.47-2.66,2.47-1.14,0-3.23.19-6.27.38-3.04.38-6.65.57-11.02.57s-8.93-.76-13.87-.76h0ZM307.07,238.86h40.09c4.94,0,8.55,0,10.83-.19,1.52-.19,3.04-.57,4.37-1.52v-1.9c0-2.47-.38-4.75-1.14-7.03-3.42-10.64-13.49-17.86-24.7-17.48-10.45-.57-20.33,4.94-25.27,14.44-2.28,4.37-3.61,8.93-4.18,13.68Z"/>
        </g>
      </g>
    </g>
  </g>
  <g id="Psd" class="st8">
    <g id="Layer_2">
      <g id="Surfaces">
        <g id="Photo_Surface">
          <g id="Outline_no_shadow">
            <path class="st4" d="M92.75,17.7h294.5c44.65,0,80.75,36.1,80.75,80.75v283.1c0,44.65-36.1,80.75-80.75,80.75H92.75c-44.65,0-80.75-36.1-80.75-80.75V98.45c0-44.65,36.1-80.75,80.75-80.75Z"/>
          </g>
        </g>
      </g>
      <g id="Outlined_Mnemonics_Logos">
        <g id="Ps">
          <path class="st15" d="M114.6,329.49v-195.51c0-1.33.57-2.09,1.9-2.09,3.23,0,6.27,0,10.64-.19,4.56-.19,9.31-.19,14.44-.38,5.13-.19,10.64-.19,16.53-.38,5.89-.19,11.59-.19,17.29-.19,15.58,0,28.5,1.9,39.14,5.89,9.5,3.23,18.24,8.55,25.46,15.58,6.08,6.08,10.83,13.49,13.87,21.66,2.85,7.98,4.37,16.15,4.37,24.7,0,16.34-3.8,29.83-11.4,40.47s-18.24,18.62-30.59,23.18c-12.92,4.75-27.17,6.46-42.75,6.46-4.56,0-7.6,0-9.5-.19s-4.56-.19-8.17-.19v60.99c.19,1.33-.76,2.47-2.09,2.66h-36.86c-1.52,0-2.28-.76-2.28-2.47ZM156.02,168.56v63.84c2.66.19,5.13.38,7.41.38h10.07c7.41,0,14.82-1.14,21.85-3.42,6.08-1.71,11.4-5.32,15.58-10.07,3.99-4.75,5.89-11.21,5.89-19.57.19-5.89-1.33-11.78-4.37-16.91-3.23-4.94-7.79-8.74-13.3-10.83-7.03-2.85-14.63-3.99-22.42-3.8-4.94,0-9.31,0-12.92.19-3.8-.19-6.46,0-7.79.19h0Z"/>
          <path class="st15" d="M376.8,220.81c-5.7-3.04-11.78-5.13-18.24-6.46-7.03-1.52-14.06-2.47-21.28-2.47-3.8-.19-7.79.38-11.4,1.33-2.47.57-4.56,1.9-5.89,3.8-.95,1.52-1.52,3.42-1.52,5.13s.76,3.42,1.9,4.94c1.71,2.09,3.99,3.8,6.46,5.13,4.37,2.28,8.93,4.37,13.49,6.27,10.26,3.42,20.14,8.17,29.26,13.87,6.27,3.99,11.4,9.31,15.01,15.77,3.04,6.08,4.56,12.73,4.37,19.57.19,8.93-2.47,17.86-7.41,25.27-5.32,7.6-12.73,13.49-21.28,16.91-9.31,3.99-20.71,6.08-34.39,6.08-8.74,0-17.29-.76-25.84-2.47-6.65-1.14-13.3-3.23-19.38-6.08-1.33-.76-2.28-2.09-2.09-3.61v-33.06c0-.57.19-1.33.76-1.71.57-.38,1.14-.19,1.71.19,7.41,4.37,15.2,7.41,23.56,9.31,7.22,1.9,14.82,2.85,22.42,2.85s12.35-.95,15.77-2.66c3.04-1.33,5.13-4.56,5.13-7.98,0-2.66-1.52-5.13-4.56-7.6-3.04-2.47-9.31-5.32-18.62-8.93-9.69-3.42-18.62-7.98-26.98-13.68-5.89-4.18-10.83-9.69-14.44-16.15-3.04-6.08-4.56-12.73-4.37-19.38,0-8.17,2.28-15.96,6.46-22.99,4.75-7.6,11.78-13.68,19.95-17.48,8.93-4.56,20.14-6.65,33.63-6.65,7.79,0,15.77.57,23.56,1.71,5.7.76,11.21,2.28,16.34,4.37.76.19,1.52.95,1.9,1.71.19.76.38,1.52.38,2.28v30.97c0,.76-.38,1.52-.95,1.9-1.71.38-2.66.38-3.42,0Z"/>
        </g>
      </g>
    </g>
  </g>
  <g id="Xd" class="st8">
    <g id="Layer_21" data-name="Layer_2">
      <g id="Surfaces1" data-name="Surfaces">
        <g id="UI_UX_Surface">
          <g id="Outline_no_shadow1" data-name="Outline_no_shadow">
            <path class="st0" d="M92.75,17.7h294.5c44.65,0,80.75,36.1,80.75,80.75v283.1c0,44.65-36.1,80.75-80.75,80.75H92.75c-44.65,0-80.75-36.1-80.75-80.75V98.45c0-44.65,36.1-80.75,80.75-80.75Z"/>
          </g>
        </g>
      </g>
      <g id="Outlined_Mnemonics_Logos1" data-name="Outlined_Mnemonics_Logos">
        <g id="Xd1" data-name="Xd">
          <path class="st1" d="M251.78,134.55l-57,94.05,60.8,99.75c.38.76.57,1.52.38,2.28s-.95.19-2.09.38h-43.51c-3.04,0-5.13-.19-6.46-2.09-3.99-7.98-8.17-15.77-12.16-23.75-3.99-7.79-8.36-15.77-12.92-23.94s-9.12-16.34-13.68-24.7h-.38c-3.99,8.17-8.36,16.34-12.73,24.51-4.37,8.17-8.74,16.34-12.92,24.32-4.37,7.98-8.74,16.15-13.11,23.94-.76,1.9-2.28,2.09-4.37,2.09h-41.8c-.76,0-1.33.38-1.33-.57-.19-.76,0-1.52.38-2.09l59.09-96.9-57.57-97.47c-.57-.76-.76-1.52-.38-1.9.38-.57,1.14-.76,1.9-.76h43.13c.95,0,1.9.19,2.66.38.76.38,1.33.95,1.9,1.71,3.61,8.17,7.79,16.34,12.16,24.51,4.56,8.17,8.93,16.15,13.68,24.13,4.56,7.98,8.74,15.96,12.73,24.13h.38c3.99-8.36,8.17-16.53,12.35-24.51,4.18-7.98,8.55-15.96,12.92-23.94s8.55-16.15,12.73-23.94c.19-.76.57-1.52,1.14-1.9.76-.38,1.52-.57,2.47-.38h40.09c.95-.19,1.9.38,2.09,1.33.19.19-.19.95-.57,1.33h0Z"/>
          <path class="st1" d="M339.56,335c-14.06.19-28.12-2.66-40.85-8.55-11.97-5.51-21.85-14.63-28.69-25.84-7.03-11.59-10.45-26.03-10.45-43.32-.19-14.06,3.42-27.93,10.45-40.09,7.22-12.35,17.67-22.61,30.21-29.45,13.3-7.41,29.26-11.02,48.07-11.02.95,0,2.28,0,3.99.19,1.71.19,3.61.19,5.89.38v-60.04c0-1.33.57-2.09,1.9-2.09h38.57c.95-.19,1.71.57,1.9,1.33v181.26c0,3.42.19,7.22.38,11.4.38,3.99.57,7.79.76,11.02,0,1.33-.57,2.47-1.9,3.04-9.88,4.18-20.33,7.22-30.97,9.12-9.69,1.71-19.38,2.66-29.26,2.66ZM358.18,297v-83.6c-1.71-.38-3.42-.76-5.13-.95-2.09-.19-4.18-.38-6.27-.38-7.41,0-14.82,1.52-21.47,4.94-6.46,3.23-11.97,7.98-16.15,14.06-4.18,6.08-6.27,14.25-6.27,24.13-.19,6.65.95,13.3,3.23,19.57,1.9,5.13,4.75,9.69,8.55,13.49,3.61,3.42,7.98,6.08,12.92,7.6,5.13,1.71,10.45,2.47,15.77,2.47,2.85,0,5.51-.19,7.98-.38,2.47.19,4.56-.19,6.84-.95Z"/>
        </g>
      </g>
    </g>
  </g>
  <g id="figma" class="st8">
    <g>
      <path id="path0_fill" class="st16" d="M163.5,469.49c42.23,0,76.5-34.27,76.5-76.5v-76.5h-76.5c-42.23,0-76.5,34.27-76.5,76.5s34.27,76.5,76.5,76.5Z"/>
      <path id="path1_fill" class="st10" d="M87.01,240c0-42.23,34.27-76.5,76.5-76.5h76.5v152.99h-76.5c-42.23,0-76.5-34.27-76.5-76.5Z"/>
      <path id="path1_fill1" data-name="path1_fill" class="st12" d="M87.01,87.01c0-42.23,34.27-76.5,76.5-76.5h76.5v152.99h-76.5c-42.23,0-76.5-34.27-76.5-76.5Z"/>
      <path id="path2_fill" class="st2" d="M240,10.51h76.5c42.23,0,76.5,34.27,76.5,76.5s-34.27,76.5-76.5,76.5h-76.5V10.51Z"/>
      <path id="path3_fill" class="st7" d="M392.99,240c0,42.23-34.27,76.5-76.5,76.5s-76.5-34.27-76.5-76.5,34.27-76.5,76.5-76.5,76.5,34.27,76.5,76.5Z"/>
    </g>
  </g>
  <g id="C4D" class="st8">
    <g class="st8">
      <path class="st14" d="M223.88,10.31L48.96,111.22c-9.98,5.74-16.09,16.39-16.09,27.88v201.82c0,11.48,6.17,22.13,16.09,27.88l174.93,100.91c9.98,5.74,22.26,5.74,32.24,0l174.92-100.91c9.98-5.74,16.09-16.39,16.09-27.88v-201.82c0-11.49-6.17-22.13-16.09-27.88L256.12,10.31c-9.98-5.74-22.26-5.74-32.24,0Z"/>
      <path class="st13" d="M386.14,239.72c0-10.32-.05-20.18-2.1-30.37-1.02-5.19-2.28-14.31-5.42-20.67-1.28-2.61-2.89-4.75-4.93-5.98-15.42-9.22-25.85,20.95-27.43,31.32-9.82,65.09-27.77,93.08-47.09,113.67,0,0-.03.03-.08.1-1.2,1.28-2.4,2.5-3.6,3.73-8.69,8.4-32.42,27.72-66.98,28.2-27.64-.38-55.15-11.01-76.24-32.08-21.09-21.07-31.73-48.56-32.11-76.17.49-34.51,19.84-58.24,28.23-66.93,1.23-1.2,2.45-2.4,3.73-3.6.08-.05.1-.08.1-.08,20.63-19.34,48.63-37.27,113.77-47.08,10.38-1.56,40.55-12.01,31.34-27.41-1.23-2.04-3.37-3.65-5.98-4.93-6.37-3.14-15.52-4.39-20.68-5.42-10.18-2.02-20.04-2.07-30.37-2.07-80.87,0-146.44,65.52-146.44,146.32,0,38.98,14.98,75.41,42.41,103.1h.28v.28c27.71,27.41,64.17,42.38,103.19,42.38,80.84,0,146.44-65.52,146.44-146.32h-.03Z"/>
      <path class="st3" d="M275.18,309.89c.23-.2.49-.43.72-.64,9.49-8.61,14.62-18.06,15.93-20.61,8.1-17.78,12.76-37.3,15.67-56.45.03-.26,4.45-25.52,18.74-32.24.54-.26,1.07-.46,1.61-.64-4.32-9.32-10.33-18.06-18.02-25.75-.56-.56-1.12-1.07-1.69-1.63-.54-.56-1.07-1.15-1.64-1.69-7.7-7.69-16.44-13.69-25.77-18.01-.18.54-.38,1.07-.64,1.61-6.75,14.28-32.03,18.7-32.26,18.72-19.17,2.89-38.71,7.56-56.5,15.66-2.33,1.18-10.3,5.52-18.2,13.36-.1.1-.18.18-.28.26-.15.15-.31.33-.49.51-.41.43-.84.87-1.25,1.33-26.41,28.33-25.13,73.36,3.35,101.82,27.71,27.69,71.18,29.63,99.61,5.39.38-.33.77-.64,1.15-.97l-.03-.03Z"/>
    </g>
    <g id="Layer_8">
      <path class="st14" d="M431.04,111.22L256.12,10.31c-9.98-5.74-22.26-5.74-32.24,0L48.96,111.22c-9.98,5.74-16.09,16.39-16.09,27.88v201.82c0,11.48,6.17,22.13,16.09,27.88l174.93,100.91c9.98,5.74,22.26,5.74,32.24,0l174.92-100.91c9.98-5.74,16.09-16.39,16.09-27.88v-201.82c0-11.48-6.17-22.13-16.09-27.88ZM308.13,171.93c.56.56,1.12,1.07,1.69,1.63,7.7,7.69,13.7,16.43,18.02,25.75-.54.18-1.07.38-1.61.64-14.29,6.72-18.71,31.98-18.74,32.24-2.91,19.16-7.57,38.67-15.67,56.45-1.3,2.55-6.44,12.01-15.93,20.61-.23.2-.49.43-.72.64l.03.03c-.38.33-.77.64-1.15.97-28.43,24.24-71.89,22.3-99.61-5.39-28.48-28.46-29.76-73.49-3.35-101.82.41-.46.84-.89,1.25-1.33.18-.18.33-.36.49-.51.1-.08.18-.15.28-.26,7.9-7.84,15.88-12.18,18.2-13.36,17.79-8.1,37.33-12.77,56.5-15.66.23-.03,25.52-4.44,32.26-18.72.26-.54.46-1.07.64-1.61,9.33,4.32,18.08,10.32,25.77,18.01.56.54,1.1,1.12,1.64,1.69ZM239.72,386.04c-39.01,0-75.47-14.97-103.19-42.38v-.28h-.28c-27.43-27.69-42.41-64.12-42.41-103.1,0-80.8,65.58-146.32,146.44-146.32,10.33,0,20.2.05,30.37,2.07,5.16,1.02,14.32,2.27,20.68,5.42,2.61,1.28,4.76,2.89,5.98,4.93,9.2,15.4-20.96,25.85-31.34,27.41-65.14,9.81-93.14,27.74-113.77,47.08,0,0-.03.03-.1.08-1.28,1.2-2.51,2.4-3.73,3.6-8.39,8.69-27.74,32.42-28.23,66.93.38,27.61,11.02,55.1,32.11,76.17,21.09,21.07,48.6,31.7,76.24,32.08,34.57-.49,58.29-19.8,66.98-28.2,1.2-1.23,2.4-2.45,3.6-3.73.05-.08.08-.1.08-.1,19.33-20.59,37.28-48.59,47.09-113.67,1.58-10.37,12.02-40.54,27.43-31.32,2.05,1.23,3.66,3.37,4.93,5.98,3.14,6.36,4.4,15.48,5.42,20.67,2.05,10.19,2.1,20.05,2.1,30.37h.03c0,80.8-65.6,146.32-146.44,146.32Z"/>
    </g>
  </g>
  <g id="rive" class="st8">
    <rect class="st8" x="23" y="23" width="434" height="434" rx="25" ry="25"/>
    <path class="st9" d="M114.13,123.35c0,9.03,7.4,16.34,16.53,16.34h136.95c15.61,0,28.46,4.77,38.56,14.31,10.1,9.54,15.15,21.8,15.15,36.78,0,13.85-5.05,25.2-15.15,34.06-10.09,8.63-22.95,12.94-38.56,12.94h-59.52c-9.13,0-16.53,7.32-16.53,16.35s7.4,16.34,16.53,16.34h65.72l59.21,94c3.67,5.68,8.84,8.52,15.49,8.52,7.35,0,12.51-2.84,15.49-8.52,2.98-5.9,2.41-12.15-1.72-18.73l-52.68-83.79c14.23-6.36,25.48-15.67,33.74-27.93,8.27-12.49,12.4-26.9,12.4-43.25s-3.79-31.11-11.36-43.6c-7.34-12.49-17.67-22.25-30.98-29.29-13.31-7.27-28.58-10.9-45.79-10.9h-136.94c-9.13,0-16.53,7.31-16.53,16.35Z"/>
    <g id="Layer_9">
      <path class="st11" d="M432,23H48c-13.81,0-25,11.19-25,25v384c0,13.81,11.19,25,25,25h384c13.81,0,25-11.19,25-25V48c0-13.81-11.19-25-25-25ZM364,364.48c-2.98,5.68-8.15,8.52-15.49,8.52-6.65,0-11.82-2.84-15.49-8.52l-59.21-94h-65.72c-9.13,0-16.53-7.32-16.53-16.34s7.4-16.35,16.53-16.35h59.52c15.61,0,28.46-4.31,38.56-12.94,10.1-8.85,15.15-20.21,15.15-34.06,0-14.99-5.05-27.25-15.15-36.78-10.1-9.54-22.95-14.31-38.56-14.31h-136.95c-9.12,0-16.53-7.32-16.53-16.34s7.4-16.35,16.53-16.35h136.94c17.22,0,32.48,3.63,45.79,10.9,13.31,7.04,23.64,16.8,30.98,29.29,7.57,12.49,11.36,27.02,11.36,43.6s-4.13,30.77-12.4,43.25c-8.26,12.26-19.51,21.57-33.74,27.93l52.68,83.79c4.13,6.58,4.7,12.83,1.72,18.73Z"/>
    </g>
  </g>
  <g id="behance_fiull" class="st8">
    <path d="M46.22,196.56c3.99,0,7.68.31,11.05,1.23,3.38.61,6.14,1.84,8.6,3.38s4.3,3.68,5.53,6.45c1.23,2.76,1.84,6.14,1.84,9.82,0,4.3-.92,7.98-3.07,10.75-1.84,2.76-4.91,5.22-8.6,7.06,5.22,1.54,9.21,4.3,11.67,7.98s3.99,8.29,3.99,13.51c0,4.3-.92,7.98-2.46,11.05s-3.99,5.83-6.75,7.68c-2.76,1.84-6.14,3.38-9.82,4.3-3.68.92-7.37,1.54-11.05,1.54H6v-84.74h40.22ZM43.76,230.94c3.38,0,6.14-.92,8.29-2.46s3.07-4.3,3.07-7.68c0-1.84-.31-3.68-.92-4.91s-1.54-2.15-2.76-3.07c-1.23-.61-2.46-1.23-3.99-1.54s-3.07-.31-4.91-.31h-17.81v19.96h19.03ZM44.68,267.17c1.84,0,3.68-.31,5.22-.61s3.07-.92,4.3-1.84c1.23-.92,2.15-1.84,3.07-3.38.61-1.54,1.23-3.38,1.23-5.53,0-4.3-1.23-7.37-3.68-9.52-2.46-1.84-5.83-2.76-9.82-2.76h-20.26v23.64h19.96ZM103.94,266.86c2.46,2.46,6.14,3.68,11.05,3.68,3.38,0,6.45-.92,8.9-2.46,2.46-1.84,3.99-3.68,4.61-5.53h15.04c-2.46,7.37-6.14,12.59-11.05,15.96-4.91,3.07-10.75,4.91-17.81,4.91-4.91,0-9.21-.92-13.2-2.46s-7.06-3.68-9.82-6.75c-2.76-2.76-4.91-6.14-6.14-10.13-1.54-3.99-2.15-8.29-2.15-13.2,0-4.61.61-8.9,2.15-12.89s3.68-7.37,6.45-10.44c2.76-2.76,6.14-5.22,9.82-6.75,3.99-1.54,7.98-2.46,12.89-2.46,5.22,0,9.82.92,13.82,3.07s7.06,4.61,9.52,8.29c2.46,3.38,4.3,7.37,5.53,11.67.61,4.3.92,8.6.61,13.51h-44.52c0,4.91,1.84,9.52,4.3,11.97ZM123.28,234.63c-2.15-2.15-5.53-3.38-9.52-3.38-2.76,0-4.91.61-6.75,1.54-1.84.92-3.07,2.15-4.3,3.38-1.23,1.23-1.84,2.76-2.15,4.3s-.61,2.76-.61,3.99h27.63c-.61-4.61-2.15-7.68-4.3-9.82h0ZM168.1,196.56v31.93h.31c2.15-3.68,4.91-6.14,8.29-7.68s6.45-2.46,9.82-2.46c4.61,0,8.29.61,11.05,1.84,2.76,1.23,5.22,3.07,6.75,5.22,1.54,2.15,2.76,4.91,3.38,7.98s.92,6.45.92,10.44v37.76h-16.89v-34.69c0-5.22-.92-8.9-2.46-11.36s-4.3-3.68-8.29-3.68c-4.61,0-7.98,1.54-9.82,3.99-2.15,2.76-3.07,7.37-3.07,13.51v32.24h-16.89v-85.04h16.89ZM220.91,229.1c1.84-2.76,3.99-4.61,6.75-6.45,2.76-1.54,5.83-2.76,9.21-3.38s6.75-.92,10.13-.92c3.07,0,6.14.31,9.52.61,3.07.31,6.14,1.23,8.6,2.46,2.76,1.23,4.61,3.07,6.45,5.22,1.54,2.15,2.46,5.22,2.46,8.9v32.24c0,2.76.31,5.53.61,7.98s1.23,4.61,2.15,5.83h-17.19c-.61-.61-.92-1.84-1.23-2.76s-.31-2.15-.31-3.07c-2.76,2.76-5.83,4.61-9.52,5.83s-7.37,1.54-11.05,1.54c-3.07,0-5.53-.31-8.29-1.23-2.46-.61-4.61-1.84-6.75-3.38-1.84-1.54-3.38-3.38-4.61-5.83-.92-2.46-1.54-4.91-1.54-8.29s.61-6.45,1.84-8.6c1.23-2.15,2.76-3.99,4.61-5.53,1.84-1.23,4.3-2.46,6.75-3.07,2.46-.61,4.91-1.23,7.68-1.54l7.37-.92c2.46-.31,4.61-.61,6.45-.92,1.84-.61,3.38-1.23,4.61-2.15s1.54-2.15,1.54-3.99-.31-3.38-.92-4.3c-.61-.92-1.54-1.84-2.46-2.46s-2.15-.92-3.38-1.23c-1.23-.31-2.76-.31-4.3-.31-3.38,0-5.83.61-7.68,2.15s-3.07,3.99-3.38,7.06h-16.89c0-3.68,1.23-7.06,2.76-9.52ZM254.37,253.05c-.92.31-2.15.61-3.38.92-1.23.31-2.46.31-3.99.61-1.23.31-2.76.31-3.99.61l-3.68.92c-1.23.31-2.46.92-3.07,1.54-.92.61-1.54,1.54-2.15,2.46-.92,1.23-.92,2.46-.92,3.99s.31,2.76.92,3.68c.61.92,1.23,1.84,2.15,2.46.92.61,2.15.92,3.38,1.23s2.46.31,3.99.31c3.38,0,5.83-.61,7.68-1.54,1.84-1.23,3.07-2.46,3.99-3.99s1.54-3.07,1.54-4.61c.31-1.54.31-2.76.31-3.68v-6.45c-.92.61-1.84,1.23-2.76,1.54h0ZM299.51,219.89v8.6h.31c2.15-3.68,4.91-6.14,8.29-7.68s7.06-2.46,10.44-2.46c4.61,0,8.29.61,11.05,1.84,3.07,1.23,5.22,3.07,6.75,5.22,1.54,2.15,2.76,4.91,3.68,7.98.61,3.07.92,6.45.92,10.44v37.76h-16.89v-34.69c0-5.22-.92-8.9-2.46-11.36s-4.3-3.99-8.6-3.99c-4.61,0-7.98,1.84-10.13,4.61-2.15,2.76-3.07,7.37-3.07,13.51v32.24h-16.89v-62.02h16.58ZM378.71,230.94c-2.76,0-4.91.61-6.75,1.84-1.84,1.23-3.38,2.76-4.61,4.91-1.23,1.84-1.84,3.99-2.46,6.45-.61,2.46-.61,4.61-.61,7.06,0,2.15.31,4.61.61,6.75.61,2.46,1.23,4.3,2.46,6.14s2.46,3.38,4.3,4.61,3.99,1.84,6.75,1.84c3.99,0,7.06-1.23,9.52-3.38,2.15-2.15,3.68-5.22,3.99-9.21h16.27c-1.23,8.29-4.3,14.43-9.52,18.73-5.22,4.3-11.97,6.45-20.26,6.45-4.61,0-8.9-.92-12.59-2.46-3.99-1.54-7.06-3.68-9.82-6.45-2.76-2.76-4.91-6.14-6.45-9.82-1.54-3.99-2.15-7.98-2.15-12.59,0-4.91.61-9.21,2.15-13.2s3.38-7.68,6.14-10.75,6.14-5.22,9.82-7.06c3.99-1.54,8.29-2.46,13.2-2.46,3.68,0,7.06.61,10.44,1.54s6.45,2.46,8.9,4.3c2.76,1.84,4.91,4.3,6.45,7.37,1.54,2.76,2.46,6.45,2.76,10.44h-16.58c-.61-7.37-4.61-11.05-11.97-11.05h0ZM96.26,202.39h34.39v8.29h-34.39v-8.29ZM433.67,266.86c2.46,2.46,6.45,3.68,11.05,3.68,3.38,0,6.45-.92,8.9-2.46,2.46-1.84,3.99-3.68,4.61-5.53h14.74c-2.46,7.37-6.14,12.59-11.05,15.96-4.91,3.07-10.75,4.91-17.81,4.91-4.91,0-9.21-.92-13.2-2.46s-7.06-3.68-9.82-6.75c-2.76-2.76-4.91-6.14-6.14-10.13-1.54-3.99-2.15-8.29-2.15-13.2,0-4.61.61-8.9,2.15-12.89s3.68-7.37,6.45-10.44c2.76-2.76,6.14-5.22,9.82-6.75,3.99-1.54,8.29-2.46,12.89-2.46,5.22,0,9.82.92,13.51,3.07,3.99,2.15,7.06,4.61,9.52,8.29,2.46,3.38,4.3,7.37,5.53,11.67,1.23,4.3,1.54,8.9,1.23,13.82h-44.52c0,4.61,1.84,9.21,4.3,11.67h0ZM453.32,234.63c-2.15-2.15-5.53-3.38-9.52-3.38-2.76,0-4.91.61-6.75,1.54-1.84.92-3.38,2.15-4.3,3.38-.92,1.23-1.84,2.76-2.15,4.3-.31,1.54-.61,2.76-.61,3.99h27.63c-.92-4.61-2.46-7.68-4.3-9.82h0Z"/>
  </g>
  <g id="behance_be">
    <path d="M153.83,110.56c11.89,0,22.87.91,32.93,3.66,10.06,1.83,18.3,5.49,25.61,10.06,7.32,4.57,12.81,10.98,16.47,19.21,3.66,8.23,5.49,18.3,5.49,29.27,0,12.81-2.74,23.78-9.15,32.02-5.49,8.23-14.64,15.55-25.61,21.04,15.55,4.57,27.44,12.81,34.76,23.78s11.89,24.7,11.89,40.25c0,12.81-2.74,23.78-7.32,32.93-4.57,9.15-11.89,17.38-20.12,22.87-8.23,5.49-18.3,10.06-29.27,12.81-10.98,2.74-21.95,4.57-32.93,4.57H34V110.56h119.83ZM146.52,213.01c10.06,0,18.3-2.74,24.7-7.32,6.4-4.57,9.15-12.81,9.15-22.87,0-5.49-.91-10.98-2.74-14.64-1.83-3.66-4.57-6.4-8.23-9.15-3.66-1.83-7.32-3.66-11.89-4.57s-9.15-.91-14.64-.91h-53.06v59.46h56.71ZM149.26,320.96c5.49,0,10.98-.91,15.55-1.83s9.15-2.74,12.81-5.49c3.66-2.74,6.4-5.49,9.15-10.06,1.83-4.57,3.66-10.06,3.66-16.47,0-12.81-3.66-21.95-10.98-28.36-7.32-5.49-17.38-8.23-29.27-8.23h-60.37v70.44h59.46ZM325.81,320.04c7.32,7.32,18.3,10.98,32.93,10.98,10.06,0,19.21-2.74,26.53-7.32,7.32-5.49,11.89-10.98,13.72-16.47h44.82c-7.32,21.95-18.3,37.51-32.93,47.57-14.64,9.15-32.02,14.64-53.06,14.64-14.64,0-27.44-2.74-39.33-7.32s-21.04-10.98-29.27-20.12c-8.23-8.23-14.64-18.3-18.3-30.19-4.57-11.89-6.4-24.7-6.4-39.33,0-13.72,1.83-26.53,6.4-38.42,4.57-11.89,10.98-21.95,19.21-31.1,8.23-8.23,18.3-15.55,29.27-20.12,11.89-4.57,23.78-7.32,38.42-7.32,15.55,0,29.27,2.74,41.16,9.15,11.89,6.4,21.04,13.72,28.36,24.7,7.32,10.06,12.81,21.95,16.47,34.76,1.83,12.81,2.74,25.61,1.83,40.25h-132.64c0,14.64,5.49,28.36,12.81,35.68ZM383.44,223.99c-6.4-6.4-16.47-10.06-28.36-10.06-8.23,0-14.64,1.83-20.12,4.57-5.49,2.74-9.15,6.4-12.81,10.06-3.66,3.66-5.49,8.23-6.4,12.81s-1.83,8.23-1.83,11.89h82.33c-1.83-13.72-6.4-22.87-12.81-29.27h0ZM302.94,127.94h102.45v24.7h-102.45v-24.7Z"/>
  </g>
</svg>