<?xml version="1.0" encoding="UTF-8"?>
<svg id="C4D" xmlns="http://www.w3.org/2000/svg" version="1.1" viewBox="0 0 480 480">
  <!-- Generator: Adobe Illustrator 30.3.0, SVG Export Plug-In . SVG Version: 2.1.3 Build 182)  -->
  <defs>
    <style>
      .st0 {
        fill: #333996;
      }
    </style>
  </defs>
  <g id="Layer_8">
    <path class="st0" d="M431.04,111.22L256.12,10.31c-9.98-5.74-22.26-5.74-32.24,0L48.96,111.22c-9.98,5.74-16.09,16.39-16.09,27.88v201.82c0,11.48,6.17,22.13,16.09,27.88l174.93,100.91c9.98,5.74,22.26,5.74,32.24,0l174.92-100.91c9.98-5.74,16.09-16.39,16.09-27.88v-201.82c0-11.48-6.17-22.13-16.09-27.88ZM308.13,171.93c.56.56,1.12,1.07,1.69,1.63,7.7,7.69,13.7,16.43,18.02,25.75-.54.18-1.07.38-1.61.64-14.29,6.72-18.71,31.98-18.74,32.24-2.91,19.16-7.57,38.67-15.67,56.45-1.3,2.55-6.44,12.01-15.93,20.61-.23.2-.49.43-.72.64l.03.03c-.38.33-.77.64-1.15.97-28.43,24.24-71.89,22.3-99.61-5.39-28.48-28.46-29.76-73.49-3.35-101.82.41-.46.84-.89,1.25-1.33.18-.18.33-.36.49-.51.1-.08.18-.15.28-.26,7.9-7.84,15.88-12.18,18.2-13.36,17.79-8.1,37.33-12.77,56.5-15.66.23-.03,25.52-4.44,32.26-18.72.26-.54.46-1.07.64-1.61,9.33,4.32,18.08,10.32,25.77,18.01.56.54,1.1,1.12,1.64,1.69ZM239.72,386.04c-39.01,0-75.47-14.97-103.19-42.38v-.28h-.28c-27.43-27.69-42.41-64.12-42.41-103.1,0-80.8,65.58-146.32,146.44-146.32,10.33,0,20.2.05,30.37,2.07,5.16,1.02,14.32,2.27,20.68,5.42,2.61,1.28,4.76,2.89,5.98,4.93,9.2,15.4-20.96,25.85-31.34,27.41-65.14,9.81-93.14,27.74-113.77,47.08,0,0-.03.03-.1.08-1.28,1.2-2.51,2.4-3.73,3.6-8.39,8.69-27.74,32.42-28.23,66.93.38,27.61,11.02,55.1,32.11,76.17,21.09,21.07,48.6,31.7,76.24,32.08,34.57-.49,58.29-19.8,66.98-28.2,1.2-1.23,2.4-2.45,3.6-3.73.05-.08.08-.1.08-.1,19.33-20.59,37.28-48.59,47.09-113.67,1.58-10.37,12.02-40.54,27.43-31.32,2.05,1.23,3.66,3.37,4.93,5.98,3.14,6.36,4.4,15.48,5.42,20.67,2.05,10.19,2.1,20.05,2.1,30.37h.03c0,80.8-65.6,146.32-146.44,146.32Z"/>
  </g>
</svg>