<?xml version="1.0" encoding="UTF-8"?>
<svg id="figma" xmlns="http://www.w3.org/2000/svg" version="1.1" viewBox="0 0 480 480">
  <!-- Generator: Adobe Illustrator 30.3.0, SVG Export Plug-In . SVG Version: 2.1.3 Build 182)  -->
  <defs>
    <style>
      .st0 {
        fill: #f37264;
      }

      .st1 {
        fill: #46b8e9;
      }

      .st2 {
        fill: #8062aa;
      }

      .st3 {
        fill: #f04f23;
      }

      .st4 {
        fill: #47ba7e;
      }
    </style>
  </defs>
  <path id="path0_fill" class="st4" d="M163.5,469.49c42.23,0,76.5-34.27,76.5-76.5v-76.5h-76.5c-42.23,0-76.5,34.27-76.5,76.5s34.27,76.5,76.5,76.5Z"/>
  <path id="path1_fill" class="st2" d="M87.01,240c0-42.23,34.27-76.5,76.5-76.5h76.5v152.99h-76.5c-42.23,0-76.5-34.27-76.5-76.5Z"/>
  <path id="path1_fill1" data-name="path1_fill" class="st3" d="M87.01,87.01c0-42.23,34.27-76.5,76.5-76.5h76.5v152.99h-76.5c-42.23,0-76.5-34.27-76.5-76.5Z"/>
  <path id="path2_fill" class="st0" d="M240,10.51h76.5c42.23,0,76.5,34.27,76.5,76.5s-34.27,76.5-76.5,76.5h-76.5V10.51Z"/>
  <path id="path3_fill" class="st1" d="M392.99,240c0,42.23-34.27,76.5-76.5,76.5s-76.5-34.27-76.5-76.5,34.27-76.5,76.5-76.5,76.5,34.27,76.5,76.5Z"/>
</svg>