<?xml version="1.0" encoding="UTF-8"?>
<svg id="Prem" xmlns="http://www.w3.org/2000/svg" viewBox="0 0 468 468">
  <defs>
    <style>
      .cls-1 {
        fill: #242056;
      }
    </style>
  </defs>
  <path class="cls-1" d="M184.99,176.92h-26.98v51.45h25.73c17.88,0,30.43-7.22,30.43-25.41,0-16.63-10.67-26.04-29.18-26.04Z"/>
  <path class="cls-1" d="M380.22,6H87.78C42.61,6,6,42.61,6,87.78v292.44c0,45.16,36.61,81.78,81.78,81.78h292.44c45.16,0,81.78-36.61,81.78-81.78V87.78c0-45.17-36.61-81.78-81.78-81.78ZM186.87,278.26h-28.86v58.98h-58.35V127.04h82.2c59.61,0,93.18,27.92,93.18,74.67,0,54.59-45.49,76.55-88.16,76.55ZM384.3,216.46c-3.77-.94-10.98-1.57-16.94-1.57-11.61,0-18.2.94-24.16,3.14v119.22h-54.9v-152.79c19.76-8.78,39.53-13.8,68.08-13.8,12.86,0,23.22,1.57,27.92,3.14v42.67Z"/>
</svg>