<?xml version="1.0" encoding="UTF-8"?>
<svg id="Psd" xmlns="http://www.w3.org/2000/svg" version="1.1" viewBox="0 0 480 480">
  <!-- Generator: Adobe Illustrator 30.3.0, SVG Export Plug-In . SVG Version: 2.1.3 Build 182)  -->
  <defs>
    <style>
      .st0 {
        fill: #061f34;
      }
    </style>
  </defs>
  <path class="st0" d="M199.15,171.98c-7.03-2.85-14.63-3.99-22.42-3.8-4.94,0-9.31,0-12.92.19-3.8-.19-6.46,0-7.79.19v63.84c2.66.19,5.13.38,7.41.38h10.07c7.41,0,14.82-1.14,21.85-3.42,6.08-1.71,11.4-5.32,15.58-10.07,3.99-4.75,5.89-11.21,5.89-19.57.19-5.89-1.33-11.78-4.37-16.91-3.23-4.94-7.79-8.74-13.3-10.83Z"/>
  <path class="st0" d="M387.25,17.7H92.75C48.1,17.7,12,53.8,12,98.45v283.1c0,44.65,36.1,80.75,80.75,80.75h294.5c44.65,0,80.75-36.1,80.75-80.75V98.45c0-44.65-36.1-80.75-80.75-80.75ZM246.84,239.05c-7.6,10.64-18.24,18.62-30.59,23.18-12.92,4.75-27.17,6.46-42.75,6.46-4.56,0-7.6,0-9.5-.19-1.9-.19-4.56-.19-8.17-.19v60.99c.19,1.33-.76,2.47-2.09,2.66h-36.86c-1.52,0-2.28-.76-2.28-2.47v-195.51c0-1.33.57-2.09,1.9-2.09,3.23,0,6.27,0,10.64-.19,4.56-.19,9.31-.19,14.44-.38,5.13-.19,10.64-.19,16.53-.38s11.59-.19,17.29-.19c15.58,0,28.5,1.9,39.14,5.89,9.5,3.23,18.24,8.55,25.46,15.58,6.08,6.08,10.83,13.49,13.87,21.66,2.85,7.98,4.37,16.15,4.37,24.7,0,16.34-3.8,29.83-11.4,40.47ZM381.55,312.96c-5.32,7.6-12.73,13.49-21.28,16.91-9.31,3.99-20.71,6.08-34.39,6.08-8.74,0-17.29-.76-25.84-2.47-6.65-1.14-13.3-3.23-19.38-6.08-1.33-.76-2.28-2.09-2.09-3.61v-33.06c0-.57.19-1.33.76-1.71.57-.38,1.14-.19,1.71.19,7.41,4.37,15.2,7.41,23.56,9.31,7.22,1.9,14.82,2.85,22.42,2.85s12.35-.95,15.77-2.66c3.04-1.33,5.13-4.56,5.13-7.98,0-2.66-1.52-5.13-4.56-7.6s-9.31-5.32-18.62-8.93c-9.69-3.42-18.62-7.98-26.98-13.68-5.89-4.18-10.83-9.69-14.44-16.15-3.04-6.08-4.56-12.73-4.37-19.38,0-8.17,2.28-15.96,6.46-22.99,4.75-7.6,11.78-13.68,19.95-17.48,8.93-4.56,20.14-6.65,33.63-6.65,7.79,0,15.77.57,23.56,1.71,5.7.76,11.21,2.28,16.34,4.37.76.19,1.52.95,1.9,1.71.19.76.38,1.52.38,2.28v30.97c0,.76-.38,1.52-.95,1.9-1.71.38-2.66.38-3.42,0-5.7-3.04-11.78-5.13-18.24-6.46-7.03-1.52-14.06-2.47-21.28-2.47-3.8-.19-7.79.38-11.4,1.33-2.47.57-4.56,1.9-5.89,3.8-.95,1.52-1.52,3.42-1.52,5.13s.76,3.42,1.9,4.94c1.71,2.09,3.99,3.8,6.46,5.13,4.37,2.28,8.93,4.37,13.49,6.27,10.26,3.42,20.14,8.17,29.26,13.87,6.27,3.99,11.4,9.31,15.01,15.77,3.04,6.08,4.56,12.73,4.37,19.57.19,8.93-2.47,17.86-7.41,25.27Z"/>
</svg>