<?xml version="1.0" encoding="UTF-8"?>
<svg id="rive" xmlns="http://www.w3.org/2000/svg" version="1.1" viewBox="0 0 480 480">
  <!-- Generator: Adobe Illustrator 30.3.0, SVG Export Plug-In . SVG Version: 2.1.3 Build 182)  -->
  <defs>
    <style>
      .st0 {
        fill-rule: evenodd;
      }
    </style>
  </defs>
  <g id="Layer_9">
    <path class="st0" d="M432,23H48c-13.81,0-25,11.19-25,25v384c0,13.81,11.19,25,25,25h384c13.81,0,25-11.19,25-25V48c0-13.81-11.19-25-25-25ZM364,364.48c-2.98,5.68-8.15,8.52-15.49,8.52-6.65,0-11.82-2.84-15.49-8.52l-59.21-94h-65.72c-9.13,0-16.53-7.32-16.53-16.34s7.4-16.35,16.53-16.35h59.52c15.61,0,28.46-4.31,38.56-12.94,10.1-8.85,15.15-20.21,15.15-34.06,0-14.99-5.05-27.25-15.15-36.78-10.1-9.54-22.95-14.31-38.56-14.31h-136.95c-9.12,0-16.53-7.32-16.53-16.34s7.4-16.35,16.53-16.35h136.94c17.22,0,32.48,3.63,45.79,10.9,13.31,7.04,23.64,16.8,30.98,29.29,7.57,12.49,11.36,27.02,11.36,43.6s-4.13,30.77-12.4,43.25c-8.26,12.26-19.51,21.57-33.74,27.93l52.68,83.79c4.13,6.58,4.7,12.83,1.72,18.73Z"/>
  </g>
</svg>