<?xml version="1.0" encoding="UTF-8"?>
<svg id="Xd" xmlns="http://www.w3.org/2000/svg" version="1.1" viewBox="0 0 480 480">
  <!-- Generator: Adobe Illustrator 30.3.0, SVG Export Plug-In . SVG Version: 2.1.3 Build 182)  -->
  <defs>
    <style>
      .st0 {
        fill: #460437;
      }
    </style>
  </defs>
  <path class="st0" d="M346.78,212.07c-7.41,0-14.82,1.52-21.47,4.94-6.46,3.23-11.97,7.98-16.15,14.06-4.18,6.08-6.27,14.25-6.27,24.13-.19,6.65.95,13.3,3.23,19.57,1.9,5.13,4.75,9.69,8.55,13.49,3.61,3.42,7.98,6.08,12.92,7.6,5.13,1.71,10.45,2.47,15.77,2.47,2.85,0,5.51-.19,7.98-.38,2.47.19,4.56-.19,6.84-.95v-83.6c-1.71-.38-3.42-.76-5.13-.95-2.09-.19-4.18-.38-6.27-.38Z"/>
  <path class="st0" d="M387.25,17.7H92.75C48.1,17.7,12,53.8,12,98.45v283.1c0,44.65,36.1,80.75,80.75,80.75h294.5c44.65,0,80.75-36.1,80.75-80.75V98.45c0-44.65-36.1-80.75-80.75-80.75ZM255.96,330.63c-.19.76-.95.19-2.09.38h-43.51c-3.04,0-5.13-.19-6.46-2.09-3.99-7.98-8.17-15.77-12.16-23.75-3.99-7.79-8.36-15.77-12.92-23.94-4.56-8.17-9.12-16.34-13.68-24.7h-.38c-3.99,8.17-8.36,16.34-12.73,24.51-4.37,8.17-8.74,16.34-12.92,24.32-4.37,7.98-8.74,16.15-13.11,23.94-.76,1.9-2.28,2.09-4.37,2.09h-41.8c-.76,0-1.33.38-1.33-.57-.19-.76,0-1.52.38-2.09l59.09-96.9-57.57-97.47c-.57-.76-.76-1.52-.38-1.9.38-.57,1.14-.76,1.9-.76h43.13c.95,0,1.9.19,2.66.38.76.38,1.33.95,1.9,1.71,3.61,8.17,7.79,16.34,12.16,24.51,4.56,8.17,8.93,16.15,13.68,24.13,4.56,7.98,8.74,15.96,12.73,24.13h.38c3.99-8.36,8.17-16.53,12.35-24.51,4.18-7.98,8.55-15.96,12.92-23.94,4.37-7.98,8.55-16.15,12.73-23.94.19-.76.57-1.52,1.14-1.9.76-.38,1.52-.57,2.47-.38h40.09c.95-.19,1.9.38,2.09,1.33.19.19-.19.95-.57,1.33l-57,94.05,60.8,99.75c.38.76.57,1.52.38,2.28ZM399.79,323.22c-9.88,4.18-20.33,7.22-30.97,9.12-9.69,1.71-19.38,2.66-29.26,2.66-14.06.19-28.12-2.66-40.85-8.55-11.97-5.51-21.85-14.63-28.69-25.84-7.03-11.59-10.45-26.03-10.45-43.32-.19-14.06,3.42-27.93,10.45-40.09,7.22-12.35,17.67-22.61,30.21-29.45,13.3-7.41,29.26-11.02,48.07-11.02.95,0,2.28,0,3.99.19s3.61.19,5.89.38v-60.04c0-1.33.57-2.09,1.9-2.09h38.57c.95-.19,1.71.57,1.9,1.33v181.26c0,3.42.19,7.22.38,11.4.38,3.99.57,7.79.76,11.02,0,1.33-.57,2.47-1.9,3.04Z"/>
</svg>